# xmcd CD database file
#
# Track frame offsets:
#	150
#	29095
#	52184
#	82143
#	111380
#	140744
#	166364
#	186182
#	209123
#	239270
#	265984
#
# Disc length: 4010 seconds
#
# Revision: 0
# Processed by: cddbd v1.5.2PL0 Copyright (c) Steve Scherf et al.
# Submitted via: CDex 1.51
#
DISCID=b40fa80b
DTITLE=Jeon Jeduk - What is Cool Change
DYEAR=2006
DGENRE=Jazz
TTITLE0=Take it or Leave it
TTITLE1=Two Stories
TTITLE2=Over The Top
TTITLE3=New Shoes
TTITLE4=Night To Down
TTITLE5=Mr. Right, He is
TTITLE6=Now Your Time
TTITLE7=Lady Madonna
TTITLE8=Simply Put
TTITLE9=It's Probably me
TTITLE10=Cool Change
EXTD=YEAR: 2006
EXTT0=
EXTT1=
EXTT2=
EXTT3=
EXTT4=
EXTT5=
EXTT6=
EXTT7=
EXTT8=
EXTT9=
EXTT10=
PLAYORDER=
